<?xml version="1.0" encoding="UTF-8" standalone="no"?>
<!-- Created with Inkscape (http://www.inkscape.org/) -->

<svg
   width="184.99994mm"
   height="185mm"
   viewBox="0 0 184.99994 185"
   version="1.1"
   id="svg1"
   xml:space="preserve"
   xmlns="http://www.w3.org/2000/svg"
   xmlns:svg="http://www.w3.org/2000/svg"><defs
     id="defs1"><filter
       style="color-interpolation-filters:sRGB"
       id="filter89-6"
       x="-0.017069236"
       y="-0.030889376"
       width="1.0352789"
       height="1.0638428"><feFlood
         result="flood"
         in="SourceGraphic"
         flood-opacity="1.000000"
         flood-color="rgb(0,0,0)"
         id="feFlood88-6" /><feGaussianBlur
         result="blur"
         in="SourceGraphic"
         stdDeviation="0.600000"
         id="feGaussianBlur88-4" /><feOffset
         result="offset"
         in="blur"
         dx="0.100000"
         dy="0.100000"
         id="feOffset88-9" /><feComposite
         result="comp1"
         operator="in"
         in="flood"
         in2="offset"
         id="feComposite88-5" /><feComposite
         result="comp2"
         operator="over"
         in="SourceGraphic"
         in2="comp1"
         id="feComposite89-0" /></filter></defs><g
     id="g105"
     transform="translate(-611.86574,-34.0195)"><rect
       style="fill:#ffffff;fill-opacity:0;stroke:#000000;stroke-width:2.98123e-08;stroke-linecap:round;stroke-linejoin:round;stroke-dasharray:none;stroke-opacity:1;paint-order:normal"
       id="rect99"
       width="185"
       height="185"
       x="611.86572"
       y="34.019501"
       ry="0" /><path
       style="display:inline;fill:#e0b199;fill-opacity:1;stroke:#000000;stroke-width:1.6;stroke-linecap:round;stroke-linejoin:round;stroke-dasharray:none;stroke-dashoffset:0;stroke-opacity:1;paint-order:normal"
       d="m 704.39884,144.73034 c 0,0 -0.82984,4.81461 -1.13142,7.6751 -0.66655,6.32163 -3.35024,12.1749 -0.57056,16.54627 3.58081,5.63123 6.6163,14.95254 11.8101,16.34817 3.80217,1.02168 9.42917,-3.56068 9.9949,-7.31089 0.91977,-6.09713 -6.14847,-12.10351 -5.62053,-14.24728 1.42193,-5.77398 -1.30472,-12.81156 -1.30472,-12.81156 l -1.36172,-5.91784 c -4.15968,-0.1417 -7.70431,-0.13798 -11.81605,-0.28197 z"
       id="path99" /><path
       style="display:inline;fill:#e0b199;fill-opacity:1;stroke:#000000;stroke-width:1.6;stroke-linecap:round;stroke-linejoin:round;stroke-dasharray:none;stroke-dashoffset:0;stroke-opacity:1;paint-order:normal"
       d="m 691.52592,148.46069 c -3.79475,5.09972 -8.05868,11.28196 -8.68923,16.72594 -1.41523,12.21867 -2.14513,15.22608 0.18411,18.35322 3.46754,4.65538 12.6592,1.80203 15.30009,-1.62463 2.04819,-2.65762 2.83202,-16.95667 3.6003,-18.45772 3.03616,-5.93203 4.00048,-9.74666 4.00048,-9.74666 -4.60266,-2.4509 -9.3918,-3.96832 -14.39575,-5.25015 z"
       id="path100" /><path
       style="display:inline;fill:#e0b199;fill-opacity:1;stroke:#000000;stroke-width:1.6;stroke-linecap:round;stroke-linejoin:round;stroke-dasharray:none;stroke-dashoffset:0;stroke-opacity:1;paint-order:normal"
       d="m 670.80037,136.87541 c 0,0 15.88282,4.31828 13.85987,6.97588 -2.02293,2.6576 -2.4708,4.00633 -4.63155,6.58443 -2.59754,3.09927 -7.32571,10.8834 -15.01722,17.20206 -8.66295,7.1167 -16.57169,-0.20954 -16.05803,-4.61456 0.57844,-4.9605 7.25788,-11.58913 10.98112,-16.09815 z"
       id="path101" /><g
       id="g104"
       transform="matrix(0.97251885,0,0,0.97251885,375.36392,-20.024736)"><circle
         style="fill:#727272;fill-opacity:0.626042;stroke:#000000;stroke-width:3.2;stroke-linecap:round;stroke-linejoin:round;stroke-dasharray:none;stroke-opacity:1;paint-order:normal"
         id="circle101"
         cx="317.34198"
         cy="140.16858"
         r="46.357365" /><circle
         style="fill:#727272;fill-opacity:0.626042;stroke:#000000;stroke-width:3.2;stroke-linecap:round;stroke-linejoin:round;stroke-dasharray:none;stroke-opacity:1;paint-order:normal"
         id="circle102"
         cx="317.34198"
         cy="140.16858"
         r="46.357365" /><path
         id="path102"
         style="display:inline;fill:#ca5213;fill-opacity:1;stroke:none;stroke-width:0;stroke-linecap:round;stroke-linejoin:round;stroke-dasharray:none;stroke-opacity:1"
         d="m 271.38207,134.11801 a 46.356859,46.356859 0 0 0 -0.39675,6.0508 46.356859,46.356859 0 0 0 2.51468,14.62505 h 13.70906 V 115.7904 l 30.1321,30.13267 30.13207,-30.13267 v 39.00346 h 13.71083 a 46.356859,46.356859 0 0 0 2.51468,-14.62563 46.356859,46.356859 0 0 0 -46.35641,-46.356999 v 5.79e-4 a 46.356859,46.356859 0 0 0 -45.96026,40.3062 z" /><path
         id="path103"
         style="display:inline;fill:#727272;fill-opacity:1;stroke:none;stroke-width:0;stroke-linecap:round;stroke-linejoin:round;stroke-dasharray:none;stroke-opacity:1"
         d="m 356.88025,164.24206 h -9.40701 -8.9921 -1.06247 v -24.54248 l -13.15058,13.15118 -6.9275,6.9275 -6.92751,-6.9275 h -5.8e-4 l -13.15001,-13.15118 v 24.54248 h -5.02699 -5.027 l -9.4035,0.002 a 46.356859,46.356859 0 0 0 0.53506,0.97984 c 0.002,0.005 0.006,0.008 0.007,0.0129 a 46.356859,46.356859 0 0 0 3.72484,4.97543 c 0.14941,0.17514 0.29518,0.3534 0.44715,0.52627 a 46.356859,46.356859 0 0 0 4.28448,4.28448 c 0.0922,0.0808 0.17853,0.16782 0.27134,0.2479 a 46.356859,46.356859 0 0 0 5.13775,3.8473 c 0.0474,0.0306 0.0954,0.0603 0.14299,0.0908 a 46.356859,46.356859 0 0 0 24.98554,7.31664 46.356859,46.356859 0 0 0 24.97733,-7.31254 c 0.0525,-0.0337 0.10569,-0.0668 0.15822,-0.10086 a 46.356859,46.356859 0 0 0 5.12662,-3.83851 c 0.0967,-0.0834 0.1865,-0.17427 0.28248,-0.25845 a 46.356859,46.356859 0 0 0 4.271,-4.27101 c 0.15606,-0.17742 0.3055,-0.36052 0.45887,-0.54032 a 46.356859,46.356859 0 0 0 4.2634,-5.96173 z" /><path
         id="path104"
         style="display:inline;fill:#ffffff;fill-opacity:1;stroke:#000000;stroke-width:0.113404;stroke-linecap:round;stroke-linejoin:round;stroke-dasharray:none;stroke-opacity:1;filter:url(#filter89-6)"
         d="m 273.5,154.79386 a 46.356859,46.356859 0 0 0 4.30499,9.44979 l 9.40349,-0.002 h 5.027 5.027 v -24.54259 l 13.15,13.15117 h 5.9e-4 l 6.92749,6.9275 6.9275,-6.9275 13.15059,-13.15117 v 24.54249 h 1.06248 8.9921 9.40701 a 46.356859,46.356859 0 0 0 4.30382,-9.44746 h -13.71083 v -39.0038 l -30.13207,30.13267 -30.1321,-30.13267 v 39.00345 z" /></g><path
       style="display:inline;fill:#e0b199;fill-opacity:1;stroke:#000000;stroke-width:1.6;stroke-linecap:round;stroke-linejoin:round;stroke-dasharray:none;stroke-dashoffset:0;stroke-opacity:1;paint-order:normal"
       d="m 726.61717,99.956527 c -2.36404,-6.223307 -5.09358,-11.182777 -9.88843,-15.847777 -0.35607,-0.34643 6.31972,-0.63071 8.67267,0.64318 31.12722,16.85232 35.97209,18.18435 41.60677,24.07026 5.65236,5.90438 8.21096,18.56318 20.08487,48.79429 0.89142,2.26955 -6.98353,21.81422 -24.71924,35.84874 -4.75812,3.76517 -30.61468,-14.82353 -32.28398,-16.60596 -4.78153,-5.10559 -13.24109,-22.99459 -19.54074,-26.93056 -4.15706,-2.5973 -15.53809,-7.32665 -17.81788,-9.20653 -3.21871,-2.65409 -8.23053,-8.75339 -10.60079,-13.90031 -1.02403,-2.22364 -3.46469,-7.96942 -0.36999,-11.97117 4.34812,-5.62256 8.5759,-1.79198 12.21009,0.2146 6.80789,3.75891 15.40857,7.49296 21.27429,10.12819 3.93631,1.76843 14.12803,8.93214 14.12803,8.93214 1.1519,-1.45104 -1.24536,-4.37462 -0.78571,-8.24647 1.06831,-8.9988 0.35581,-19.74797 -1.96996,-25.922623 z"
       id="path105" /></g></svg>
